# xmcd
#
# Track frame offsets: 
#        150
#        15956
#        31686
#        53185
#        92482
#        114194
#        135833
#        147854
#        163185
#        188165
#        206493
#
# Disc length: 2959 seconds
#
# Revision: 0
# Processed by: cddbd v1.5.2PL0 Copyright (c) Steve Scherf et al.
# Submitted via: ExactAudioCopyFreeDBPlugin 1.0
#
DISCID=7e0b8d0b
DTITLE=Peter Bruntnell - Nos Da Comrade
DYEAR=2015
DGENRE=Alt. Country
TTITLE0=Mr. Sunshine
TTITLE1=End of the World
TTITLE2=Rainstars
TTITLE3=Yuri Gagarin
TTITLE4=Dance of the dead
TTITLE5=Where the snakes hang out
TTITLE6=Fishing the flood plain
TTITLE7=Peak operational condition
TTITLE8=Long way from home
TTITLE9=Long way down from a cloud
TTITLE10=Caroline
EXTD=
EXTT0=
EXTT1=
EXTT2=
EXTT3=
EXTT4=
EXTT5=
EXTT6=
EXTT7=
EXTT8=
EXTT9=
EXTT10=
PLAYORDER=
